<svg viewBox="0 0 200 200" xmlns="http://www.w3.org/2000/svg">
  <rect x="8" y="8" width="184" height="184" rx="24" fill="#0a2e28"/>
  <path d="M100 28c-42 0-76 30-76 68 0 26 20 34 38 34 10 0 14-6 14-13 0-8-7-11-7-20 0-11 14-19 31-19 34 0 60-22 60-46 0-13-25-24-60-24z" fill="#0f3d33" stroke="#3ccb9a" stroke-width="6"/>
  <circle cx="72" cy="74" r="14" fill="#3ccb9a"/>
  <circle cx="112" cy="58" r="14" fill="#2a9dbf"/>
  <circle cx="146" cy="76" r="14" fill="#6a4fd6"/>
  <circle cx="150" cy="112" r="14" fill="#1a6b4a"/>
  <circle cx="76" cy="112" r="10" fill="#7affc9"/>
</svg>
